<svg width="491" height="492" viewBox="0 0 491 492" fill="none" xmlns="http://www.w3.org/2000/svg">
<circle cx="245.498" cy="245.832" r="71.4985" stroke="#9BA1A5" stroke-width="4"/>
<circle cx="245.5" cy="245.832" r="97.5031" stroke="#9BA1A5" stroke-width="2"/>
<circle cx="245.5" cy="245.832" r="122.25" stroke="#9BA1A5"/>
<circle cx="245.499" cy="245.833" r="163.167" stroke="#9BA1A5"/>
<circle opacity="0.5" cx="245.501" cy="245.831" r="204.083" stroke="#9BA1A5"/>
<circle opacity="0.3" cx="245.5" cy="245.832" r="245" stroke="#9BA1A5"/>
<path d="M31 267.332V224.332H46.5921C49.4373 224.332 51.9412 224.86 54.1036 225.916C56.3039 226.935 57.9921 228.368 59.1681 230.216C60.3821 232.027 60.9891 234.12 60.9891 236.497V237.402C60.9891 239.778 60.3821 241.89 59.1681 243.739C57.9921 245.549 56.3039 246.982 54.1036 248.039C51.9412 249.057 49.4373 249.566 46.5921 249.566H36.2922V267.332H31ZM46.023 245.266C48.9821 245.266 51.2962 244.55 52.9655 243.116C54.6726 241.683 55.5262 239.759 55.5262 237.345V236.497C55.5262 234.12 54.6726 232.215 52.9655 230.782C51.2962 229.311 48.9821 228.575 46.023 228.575H36.2922V245.266H46.023Z" fill="#05141F"/>
<path d="M93.8906 267.332H68.5108V224.332H73.803V262.975H93.8906V267.332Z" fill="#05141F"/>
<path d="M101.771 267.332H96.4785L112.81 224.332H117.989L134.377 267.332H128.744L124.134 254.885H106.38L101.771 267.332ZM115.257 231.065L107.973 250.585H122.541L115.257 231.065Z" fill="#05141F"/>
<path d="M145.49 267.332H140.198V224.332H146.23L168.765 259.354V224.332H174V267.332H168.196L145.49 232.027V267.332Z" fill="#05141F"/>
<path d="M218 262.222C220.565 266.144 223.963 269.401 228.192 271.993C232.491 274.514 236.893 275.775 241.4 275.775C245.768 275.775 249.131 274.724 251.488 272.623C253.915 270.452 255.128 267.825 255.128 264.743C255.128 262.502 254.296 260.506 252.632 258.755C251.037 257.004 248.229 255.043 244.208 252.871L232.664 246.673C227.741 244.011 224.067 241.139 221.64 238.057C219.283 234.905 218.104 230.773 218.104 225.66C218.104 221.948 219.04 218.481 220.912 215.259C222.784 211.967 225.661 209.34 229.544 207.379C233.427 205.348 238.176 204.332 243.792 204.332C251.973 204.332 259.565 206.994 266.568 212.317V228.181C263.309 223.979 259.739 220.862 255.856 218.831C251.973 216.73 247.952 215.679 243.792 215.679C240.464 215.679 237.829 216.589 235.888 218.411C233.947 220.162 232.976 222.298 232.976 224.819C232.976 226.851 233.6 228.637 234.848 230.178C236.096 231.719 238.419 233.365 241.816 235.116L254.088 241.524C259.496 244.396 263.483 247.618 266.048 251.19C268.683 254.692 270 259.105 270 264.428C270 269.051 268.821 273.078 266.464 276.511C264.107 279.943 260.744 282.604 256.376 284.495C252.077 286.386 247.085 287.332 241.4 287.332C236.339 287.332 231.693 286.421 227.464 284.6C223.235 282.849 220.08 280.888 218 278.717V262.222Z" fill="#05141F"/>
</svg>
