<svg width="1154" height="265" viewBox="0 0 1154 265" fill="none" xmlns="http://www.w3.org/2000/svg">
<path d="M670.218 234.43C670.218 236.564 670.815 237.728 672.209 237.728C673.205 237.728 674.002 237.34 674.998 236.758L1034.32 9.20174C1040.7 5.12785 1046.47 2.99391 1055.04 2.99391H1134.12C1146.27 2.99391 1154.43 10.9477 1154.43 22.7814V169.635C1154.43 187.289 1150.45 197.571 1134.12 207.077L1038.31 263.141C1037.11 263.917 1035.92 264.305 1035.12 264.305C1033.93 264.305 1032.93 263.529 1032.93 260.231V88.7396C1032.93 86.7997 1032.33 85.4417 1030.94 85.4417C1029.94 85.4417 1029.15 85.8297 1028.15 86.4117L765.427 252.665C758.057 257.321 752.082 258.679 745.31 258.679H571.024C558.874 258.679 550.708 250.725 550.708 238.892V27.4373C550.708 25.8853 549.911 24.5273 548.716 24.5273C547.72 24.5273 546.923 24.9153 545.927 25.4973L372.638 126.957C370.845 127.927 370.447 128.897 370.447 129.673C370.447 130.449 370.646 131.031 372.04 132.195L495.733 252.665C497.326 254.217 498.521 255.575 498.521 256.739C498.521 258.097 496.729 258.873 494.538 258.873H382.597C373.833 258.873 367.06 257.515 362.28 252.859L287.188 179.723C286.391 178.947 285.794 178.559 284.997 178.559C284.399 178.559 283.403 178.947 282.607 179.335L157.121 252.859C149.552 257.321 144.373 258.679 136.804 258.679H21.2781C9.12795 258.679 0.961426 250.725 0.961426 238.892V94.7535C0.961426 76.906 4.9451 66.8182 21.2781 57.3125L117.683 0.859967C118.679 0.277982 119.476 0.0839844 120.272 0.0839844C121.667 0.0839844 122.463 1.63595 122.463 4.73986V197.571C122.463 199.511 123.061 200.481 124.455 200.481C125.252 200.481 126.248 199.899 127.244 199.317L452.908 8.61976C460.677 4.15788 465.457 2.79992 474.42 2.79992H649.702C661.852 2.79992 670.018 10.7537 670.018 22.5874L670.218 234.43Z" fill="white"/>
</svg>
